<svg id="Layer_1" data-name="Layer 1" xmlns="http://www.w3.org/2000/svg" xmlns:xlink="http://www.w3.org/1999/xlink" viewBox="0 0 128 128"><defs><style>.cls-1{fill:none;}.cls-2{fill:url(#linear-gradient);}.cls-3{clip-path:url(#clip-path);}.cls-4{fill:url(#linear-gradient-2);}.cls-5{fill:#2d2d3b;}.cls-19,.cls-5{fill-opacity:0.95;}.cls-6{fill:#2b2b38;}.cls-7{clip-path:url(#clip-path-2);}.cls-8{fill:#d5ee9b;}.cls-9{clip-path:url(#clip-path-3);}.cls-10{clip-path:url(#clip-path-4);}.cls-11{clip-path:url(#clip-path-5);}.cls-12{clip-path:url(#clip-path-6);}.cls-13{clip-path:url(#clip-path-7);}.cls-14{clip-path:url(#clip-path-8);}.cls-15{clip-path:url(#clip-path-9);}.cls-16{clip-path:url(#clip-path-10);}.cls-17{clip-path:url(#clip-path-11);}.cls-18{fill:#eff7ff;}.cls-19,.cls-33{fill:#fff;}.cls-20{clip-path:url(#clip-path-12);}.cls-21{fill:url(#linear-gradient-3);}.cls-22{fill:url(#linear-gradient-4);}.cls-23{clip-path:url(#clip-path-13);}.cls-24{fill:url(#linear-gradient-5);}.cls-25{fill:url(#linear-gradient-6);}.cls-26{clip-path:url(#clip-path-14);}.cls-27{fill:url(#linear-gradient-7);}.cls-28{fill:url(#linear-gradient-8);}.cls-29{clip-path:url(#clip-path-15);}.cls-30{fill:url(#linear-gradient-9);}.cls-31{fill:url(#linear-gradient-10);}.cls-32{clip-path:url(#clip-path-16);}.cls-34{clip-path:url(#clip-path-17);}.cls-35{fill:url(#linear-gradient-11);}.cls-36{fill:url(#linear-gradient-12);}.cls-37{clip-path:url(#clip-path-18);}.cls-38{fill:url(#linear-gradient-13);}.cls-39{fill:url(#linear-gradient-14);}.cls-40{clip-path:url(#clip-path-19);}.cls-41{fill:url(#linear-gradient-15);}.cls-42{fill:url(#linear-gradient-16);}.cls-43{clip-path:url(#clip-path-20);}.cls-44{fill:url(#linear-gradient-17);}.cls-45{clip-path:url(#clip-path-21);}.cls-46{fill:url(#linear-gradient-18);}.cls-47{fill:url(#linear-gradient-19);}</style><linearGradient id="linear-gradient" x1="64" y1="2" x2="64" y2="130" gradientTransform="matrix(1, 0, 0, -1, 0, 130)" gradientUnits="userSpaceOnUse"><stop offset="0" stop-color="#5558ff"/><stop offset="1" stop-color="#00c0ff"/></linearGradient><clipPath id="clip-path"><rect class="cls-1" width="128" height="128" rx="12"/></clipPath><linearGradient id="linear-gradient-2" x1="26.51" y1="50.52" x2="26.51" y2="51.82" xlink:href="#linear-gradient"/><clipPath id="clip-path-2"><rect class="cls-1" x="41" y="41.02" width="8.88" height="8.88"/></clipPath><clipPath id="clip-path-3"><rect class="cls-1" x="60" y="41.02" width="8.88" height="8.88"/></clipPath><clipPath id="clip-path-4"><rect class="cls-1" x="98" y="41.02" width="8.88" height="8.88"/></clipPath><clipPath id="clip-path-5"><rect class="cls-1" x="79" y="41.02" width="8.88" height="8.88"/></clipPath><clipPath id="clip-path-6"><rect class="cls-1" x="22" y="41.02" width="8.88" height="8.88"/></clipPath><clipPath id="clip-path-7"><rect class="cls-1" x="98.85" y="16.56" width="7.88" height="7.88"/></clipPath><clipPath id="clip-path-8"><rect class="cls-1" x="57.21" y="16.56" width="7.88" height="7.88"/></clipPath><clipPath id="clip-path-9"><rect class="cls-1" x="71.09" y="16.56" width="7.88" height="7.88"/></clipPath><clipPath id="clip-path-10"><rect class="cls-1" x="84.97" y="16.56" width="7.88" height="7.88"/></clipPath><clipPath id="clip-path-11"><rect class="cls-1" x="22" y="16.01" width="8.88" height="8.88"/></clipPath><clipPath id="clip-path-12"><rect class="cls-1" x="41" y="103.24" width="8.88" height="8.88"/></clipPath><linearGradient id="linear-gradient-3" x1="45.44" y1="18.62" x2="45.44" y2="26.02" xlink:href="#linear-gradient"/><linearGradient id="linear-gradient-4" x1="45.44" y1="20.84" x2="45.44" y2="23.8" xlink:href="#linear-gradient"/><clipPath id="clip-path-13"><rect class="cls-1" x="60" y="103.24" width="8.88" height="8.88"/></clipPath><linearGradient id="linear-gradient-5" x1="64.44" y1="18.99" x2="64.44" y2="26.02" xlink:href="#linear-gradient"/><linearGradient id="linear-gradient-6" x1="64.44" y1="21.58" x2="64.44" y2="23.06" xlink:href="#linear-gradient"/><clipPath id="clip-path-14"><rect class="cls-1" x="98" y="103.24" width="8.88" height="8.88"/></clipPath><linearGradient id="linear-gradient-7" x1="102.44" y1="18.62" x2="102.44" y2="26.02" xlink:href="#linear-gradient"/><linearGradient id="linear-gradient-8" x1="102.44" y1="21.58" x2="102.44" y2="24.54" xlink:href="#linear-gradient"/><clipPath id="clip-path-15"><rect class="cls-1" x="79" y="103.24" width="8.88" height="8.88"/></clipPath><linearGradient id="linear-gradient-9" x1="83.57" y1="18.62" x2="83.57" y2="26.02" xlink:href="#linear-gradient"/><linearGradient id="linear-gradient-10" x1="26.5" y1="15.76" x2="26.5" y2="28.76" xlink:href="#linear-gradient"/><clipPath id="clip-path-16"><rect class="cls-1" x="22" y="103.24" width="8.88" height="8.88"/></clipPath><clipPath id="clip-path-17"><rect class="cls-1" x="41" y="78.23" width="8.88" height="8.88"/></clipPath><linearGradient id="linear-gradient-11" x1="45.44" y1="43.63" x2="45.44" y2="51.03" xlink:href="#linear-gradient"/><linearGradient id="linear-gradient-12" x1="45.44" y1="45.85" x2="45.44" y2="48.81" xlink:href="#linear-gradient"/><clipPath id="clip-path-18"><rect class="cls-1" x="60" y="78.23" width="8.88" height="8.88"/></clipPath><linearGradient id="linear-gradient-13" x1="64.44" y1="44" x2="64.44" y2="51.03" xlink:href="#linear-gradient"/><linearGradient id="linear-gradient-14" x1="64.44" y1="46.59" x2="64.44" y2="48.07" xlink:href="#linear-gradient"/><clipPath id="clip-path-19"><rect class="cls-1" x="98" y="78.23" width="8.88" height="8.88"/></clipPath><linearGradient id="linear-gradient-15" x1="102.44" y1="43.63" x2="102.44" y2="51.03" xlink:href="#linear-gradient"/><linearGradient id="linear-gradient-16" x1="102.44" y1="46.59" x2="102.44" y2="49.55" xlink:href="#linear-gradient"/><clipPath id="clip-path-20"><rect class="cls-1" x="79" y="78.23" width="8.88" height="8.88"/></clipPath><linearGradient id="linear-gradient-17" x1="83.57" y1="43.63" x2="83.57" y2="51.03" xlink:href="#linear-gradient"/><clipPath id="clip-path-21"><rect class="cls-1" x="22" y="78.23" width="8.88" height="8.88"/></clipPath><linearGradient id="linear-gradient-18" x1="26.44" y1="43.76" x2="26.44" y2="51.03" xlink:href="#linear-gradient"/><linearGradient id="linear-gradient-19" x1="36.02" y1="-9.25" x2="36.02" y2="3.83" xlink:href="#linear-gradient"/></defs><rect class="cls-2" width="128" height="128" rx="12"/><g class="cls-3"><rect class="cls-1" y="-0.02" width="128" height="128.03"/><path class="cls-4" d="M23.67,79.48a1.3,1.3,0,0,1,1.3-1.3H28a1.3,1.3,0,0,1,1.3,1.3H23.67Z"/><path d="M11-56.56A13.45,13.45,0,0,1,24.44-70h78.92a13.44,13.44,0,0,1,13.43,13.45V46.08a13.43,13.43,0,0,1-13.43,13.44H24.44A13.44,13.44,0,0,1,11,46.08Z"/><path class="cls-5" d="M15.89-5.24a9,9,0,0,1,9-9h77.94a9,9,0,0,1,9,9h0a9,9,0,0,1-9,9H24.93a9,9,0,0,1-9-9Z"/><path class="cls-6" d="M15.9,45.44A9.06,9.06,0,0,1,25,36.38h78.1a9.06,9.06,0,0,1,9.06,9.06h0a9.06,9.06,0,0,1-9.06,9.06H25a9.05,9.05,0,0,1-9.06-9.06Z"/><g class="cls-7"><path class="cls-8" d="M45.44,41.76a3.7,3.7,0,1,0,3.7,3.7A3.7,3.7,0,0,0,45.44,41.76Zm0,6.66a3,3,0,1,1,3-3A3,3,0,0,1,45.44,48.42Z"/><path class="cls-8" d="M44,46.94l2.22-.74L46.92,44l-2.22.74Z"/></g><g class="cls-9"><path class="cls-8" d="M68,43l-1.11-1.11a.36.36,0,0,0-.26-.11H62.22a.36.36,0,0,0-.26.11L60.85,43a.36.36,0,0,0-.11.26v4.81a.74.74,0,0,0,.74.74H67.4a.74.74,0,0,0,.74-.74V43.24A.36.36,0,0,0,68,43Zm-5.66-.48h4.14l.37.37H62Zm-.89,5.55V43.61H67.4v4.44Z"/><path class="cls-8" d="M65.55,45.46H63.33v-.74h-.74V46.2h3.7V44.72h-.74Z"/></g><g class="cls-10"><path class="cls-8" d="M102.44,41.76a3.75,3.75,0,0,0-3.7,3.7,3.71,3.71,0,0,0,1.48,2.93v0h0a3.58,3.58,0,0,0,4.36,0h0v0a3.71,3.71,0,0,0,1.48-2.93A3.75,3.75,0,0,0,102.44,41.76ZM101,48a1.11,1.11,0,0,1,1.08-.88h.74a1.11,1.11,0,0,1,1.08.88,2.89,2.89,0,0,1-2.9,0Zm3.53-.48a1.85,1.85,0,0,0-1.71-1.14h-.74a1.85,1.85,0,0,0-1.71,1.14,3,3,0,0,1-.88-2.09,3,3,0,0,1,5.92,0A3,3,0,0,1,104.52,47.55Z"/><path class="cls-8" d="M102.44,43.24a1.48,1.48,0,1,0,1.48,1.48A1.45,1.45,0,0,0,102.44,43.24Zm0,2.22a.74.74,0,1,1,.74-.74A.7.7,0,0,1,102.44,45.46Z"/></g><g class="cls-11"><path class="cls-8" d="M80.48,46.57V42.5h-.74v-.74h1.11a.38.38,0,0,1,.37.37V46.2h4.6l.74-2.59H82v-.74H87a.32.32,0,0,1,.16,0,.41.41,0,0,1,.13.1.51.51,0,0,1,.07.15.48.48,0,0,1,0,.17l-.93,3.33a.39.39,0,0,1-.13.2.4.4,0,0,1-.23.08H80.85a.38.38,0,0,1-.37-.37Zm.74,2.59A.76.76,0,0,1,80.7,49a.74.74,0,0,1,0-1.05.72.72,0,0,1,1,0,.74.74,0,0,1,0,1.05A.76.76,0,0,1,81.22,49.16Zm4.44,0a.76.76,0,0,1-.52-.21.74.74,0,0,1,0-1.05.72.72,0,0,1,1,0,.74.74,0,0,1,0,1.05A.76.76,0,0,1,85.66,49.16Z"/></g><g class="cls-12"><path class="cls-8" d="M29.4,48.66a.35.35,0,0,1-.11.26A.36.36,0,0,1,29,49H23.85a.36.36,0,0,1-.26-.11.35.35,0,0,1-.11-.26V45.33H22.37l3.82-3.47a.36.36,0,0,1,.5,0l3.82,3.47H29.4Zm-3-1.85a.91.91,0,0,0,.65-.27.9.9,0,0,0,.28-.65.93.93,0,0,0-1.58-.66.91.91,0,0,0-.27.66.89.89,0,0,0,.27.65.91.91,0,0,0,.65.27Z"/></g><path class="cls-6" d="M15.9,20.44A9.06,9.06,0,0,1,25,11.37h78.1a9.07,9.07,0,0,1,9.06,9.07h0a9.06,9.06,0,0,1-9.06,9.06H25a9.06,9.06,0,0,1-9.06-9.06Z"/><path class="cls-8" d="M26.63,13.94H45.41A6.54,6.54,0,0,1,52,20.48h0A6.54,6.54,0,0,1,45.41,27H26.63a6.54,6.54,0,0,1-6.54-6.55h0A6.54,6.54,0,0,1,26.63,13.94Z"/><path class="cls-6" d="M33.66,22.45V18.53h.59v1.7h2v-1.7h.59v3.92H36.2V20.74h-2v1.71Z"/><path class="cls-6" d="M38.68,22.51a1.43,1.43,0,0,1-.72-.19,1.45,1.45,0,0,1-.48-.53,1.81,1.81,0,0,1-.17-.8,1.85,1.85,0,0,1,.17-.8,1.45,1.45,0,0,1,.48-.53,1.43,1.43,0,0,1,.72-.19,1.28,1.28,0,0,1,1.2.72,1.85,1.85,0,0,1,.17.8,1.81,1.81,0,0,1-.17.8,1.28,1.28,0,0,1-1.2.72Zm0-.48a.68.68,0,0,0,.45-.15.92.92,0,0,0,.26-.37,1.73,1.73,0,0,0,0-1,1,1,0,0,0-.26-.38.73.73,0,0,0-.45-.14.68.68,0,0,0-.44.14.94.94,0,0,0-.27.38,1.73,1.73,0,0,0,0,1,.85.85,0,0,0,.27.37A.63.63,0,0,0,38.68,22Z"/><path class="cls-6" d="M40.52,22.45V19.51h.55V20h0a.76.76,0,0,1,.3-.38.89.89,0,0,1,.5-.14.86.86,0,0,1,.49.14.79.79,0,0,1,.29.38h0a.79.79,0,0,1,.33-.37,1,1,0,0,1,.55-.15.92.92,0,0,1,.65.25,1,1,0,0,1,.25.76v2h-.57V20.53a.52.52,0,0,0-.16-.43.59.59,0,0,0-.39-.13.52.52,0,0,0-.43.17.6.6,0,0,0-.16.44v1.87h-.57V20.5a.53.53,0,0,0-.15-.39A.54.54,0,0,0,41.7,20a.61.61,0,0,0-.3.08.64.64,0,0,0-.22.24.65.65,0,0,0-.09.35v1.81Z"/><path class="cls-6" d="M46.38,22.51a1.49,1.49,0,0,1-.75-.19,1.18,1.18,0,0,1-.48-.53A1.77,1.77,0,0,1,45,21a1.85,1.85,0,0,1,.17-.8,1.28,1.28,0,0,1,.47-.53,1.34,1.34,0,0,1,.72-.2,1.36,1.36,0,0,1,.48.09,1.2,1.2,0,0,1,.42.25,1.25,1.25,0,0,1,.29.46,1.94,1.94,0,0,1,.11.68v.2H45.31v-.43h1.77a.87.87,0,0,0-.09-.4.68.68,0,0,0-.26-.27.71.71,0,0,0-.39-.1.82.82,0,0,0-.42.11.74.74,0,0,0-.27.31.8.8,0,0,0-.1.41v.33a1.09,1.09,0,0,0,.11.5.75.75,0,0,0,.29.32.85.85,0,0,0,.43.1,1,1,0,0,0,.3,0,.59.59,0,0,0,.23-.14.57.57,0,0,0,.15-.23l.54.09a1,1,0,0,1-.23.42,1.15,1.15,0,0,1-.42.28A1.7,1.7,0,0,1,46.38,22.51Z"/><g class="cls-13"><path class="cls-8" d="M102.79,17.21a3.27,3.27,0,0,0-2,5.89v0h0a3.17,3.17,0,0,0,3.87,0h0v0a3.27,3.27,0,0,0-2-5.89Zm-1.29,5.56a1,1,0,0,1,1-.77h.65a1,1,0,0,1,1,.77,2.53,2.53,0,0,1-2.57,0Zm3.13-.42a1.66,1.66,0,0,0-1.52-1h-.65a1.66,1.66,0,0,0-1.52,1,2.63,2.63,0,0,1-.78-1.85,2.63,2.63,0,1,1,5.25,0A2.63,2.63,0,0,1,104.63,22.35Z"/><path class="cls-8" d="M102.79,18.53a1.31,1.31,0,1,0,1.31,1.31A1.29,1.29,0,0,0,102.79,18.53Zm0,2a.66.66,0,1,1,.65-.66A.63.63,0,0,1,102.79,20.5Z"/></g><g class="cls-14"><path class="cls-8" d="M61.15,17.21a3.29,3.29,0,1,0,3.28,3.29A3.3,3.3,0,0,0,61.15,17.21Zm0,5.91a2.63,2.63,0,1,1,2.62-2.62A2.62,2.62,0,0,1,61.15,23.12Z"/><path class="cls-8" d="M59.83,21.81l2-.66.66-2-2,.66Z"/></g><g class="cls-15"><path class="cls-8" d="M78.21,18.29l-1-1a.34.34,0,0,0-.23-.1H73.06a.37.37,0,0,0-.24.1l-1,1a.35.35,0,0,0-.1.24V22.8a.66.66,0,0,0,.66.65h5.25a.65.65,0,0,0,.66-.65V18.53A.35.35,0,0,0,78.21,18.29Zm-5-.42h3.67l.33.33H72.86ZM72.4,22.8V18.85h5.25V22.8Z"/><path class="cls-8" d="M76,20.5H74v-.66h-.66v1.31h3.29V19.84H76Z"/></g><g class="cls-16"><path class="cls-8" d="M86.28,21.48V17.87h-.66v-.66h1a.34.34,0,0,1,.33.33v3.61H91l.66-2.3H87.59V18.2H92.1a.32.32,0,0,1,.14,0,.38.38,0,0,1,.12.09.35.35,0,0,1,.06.14.38.38,0,0,1,0,.15l-.82,2.95a.32.32,0,0,1-.12.18.31.31,0,0,1-.2.07H86.61a.34.34,0,0,1-.33-.33Zm.66,2.3a.68.68,0,0,1-.47-.19.66.66,0,0,1,0-.93.68.68,0,0,1,.47-.19.66.66,0,0,1,0,1.31Zm3.94,0a.68.68,0,0,1-.47-.19.66.66,0,0,1,0-.93.68.68,0,0,1,.47-.19.66.66,0,0,1,0,1.31Z"/></g><g class="cls-17"><path class="cls-6" d="M29.4,23.66a.38.38,0,0,1-.11.26A.36.36,0,0,1,29,24H23.85a.36.36,0,0,1-.26-.11.38.38,0,0,1-.11-.26V20.33H22.37l3.82-3.48a.39.39,0,0,1,.5,0l3.82,3.48H29.4Zm-3-1.85a.94.94,0,0,0,.93-.93.9.9,0,0,0-.28-.65.92.92,0,0,0-1.3,0,.89.89,0,0,0-.27.65.92.92,0,0,0,.92.93Z"/></g><path class="cls-18" d="M11,81.7A13.47,13.47,0,0,1,24.47,68.23h79.08A13.47,13.47,0,0,1,117,81.7v77.39a13.47,13.47,0,0,1-13.47,13.47H24.47A13.47,13.47,0,0,1,11,159.09Z"/><path class="cls-19" d="M15.9,107.66A9.05,9.05,0,0,1,25,98.6h78.1a9.06,9.06,0,0,1,9.06,9.06h0a9.06,9.06,0,0,1-9.06,9.06H25a9.06,9.06,0,0,1-9.06-9.06Z"/><g class="cls-20"><path class="cls-21" d="M45.44,104a3.7,3.7,0,1,0,3.7,3.7A3.7,3.7,0,0,0,45.44,104Zm0,6.66a3,3,0,1,1,3-3A3,3,0,0,1,45.44,110.64Z"/><path class="cls-22" d="M44,109.16l2.22-.74.74-2.22-2.22.74Z"/></g><g class="cls-23"><path class="cls-24" d="M68,105.2l-1.11-1.11a.36.36,0,0,0-.26-.11H62.22a.36.36,0,0,0-.26.11l-1.11,1.11a.35.35,0,0,0-.11.26v4.81a.74.74,0,0,0,.74.74H67.4a.74.74,0,0,0,.74-.74v-4.81A.35.35,0,0,0,68,105.2Zm-5.66-.48h4.14l.37.37H62Zm-.89,5.55v-4.44H67.4v4.44Z"/><path class="cls-25" d="M65.55,107.68H63.33v-.74h-.74v1.48h3.7v-1.48h-.74Z"/></g><g class="cls-26"><path class="cls-27" d="M102.44,104a3.68,3.68,0,0,0-2.22,6.63v0h0a3.58,3.58,0,0,0,4.36,0h0v0a3.68,3.68,0,0,0-2.22-6.63ZM101,110.24a1.11,1.11,0,0,1,1.08-.87h.74a1.11,1.11,0,0,1,1.08.87,2.83,2.83,0,0,1-2.9,0Zm3.53-.47a1.85,1.85,0,0,0-1.71-1.14h-.74a1.85,1.85,0,0,0-1.71,1.14,3,3,0,0,1-.88-2.09,3,3,0,0,1,5.92,0A3,3,0,0,1,104.52,109.77Z"/><path class="cls-28" d="M102.44,105.46a1.48,1.48,0,1,0,1.48,1.48A1.45,1.45,0,0,0,102.44,105.46Zm0,2.22a.74.74,0,1,1,.74-.74A.7.7,0,0,1,102.44,107.68Z"/></g><g class="cls-29"><path class="cls-30" d="M80.48,108.79v-4.07h-.74V104h1.11a.38.38,0,0,1,.37.37v4.07h4.6l.74-2.59H82v-.74H87a.32.32,0,0,1,.16,0,.41.41,0,0,1,.13.1.51.51,0,0,1,.07.15.48.48,0,0,1,0,.17l-.93,3.33a.39.39,0,0,1-.13.2.4.4,0,0,1-.23.08H80.85a.38.38,0,0,1-.37-.37Zm.74,2.59a.73.73,0,0,1-.52-.22.71.71,0,0,1-.22-.52.74.74,0,0,1,1.48,0,.71.71,0,0,1-.22.52A.73.73,0,0,1,81.22,111.38Zm4.44,0a.73.73,0,0,1-.52-.22.71.71,0,0,1-.22-.52.74.74,0,0,1,1.48,0,.71.71,0,0,1-.22.52A.73.73,0,0,1,85.66,111.38Z"/></g><path class="cls-31" d="M20,107.74a6.5,6.5,0,0,1,6.5-6.5h0a6.5,6.5,0,0,1,6.5,6.5h0a6.5,6.5,0,0,1-6.5,6.5h0a6.5,6.5,0,0,1-6.5-6.5Z"/><g class="cls-32"><path class="cls-33" d="M29.4,110.88a.38.38,0,0,1-.37.37H23.85a.38.38,0,0,1-.37-.37v-3.33H22.37l3.82-3.47a.36.36,0,0,1,.5,0l3.82,3.47H29.4Zm-3-1.85a.94.94,0,0,0,.93-.93.9.9,0,0,0-.28-.65.92.92,0,0,0-1.3,0,.93.93,0,0,0,0,1.31.91.91,0,0,0,.65.27Z"/></g><path class="cls-19" d="M15.9,82.65A9.06,9.06,0,0,1,25,73.59h78.1a9.06,9.06,0,0,1,9.06,9.06h0a9.06,9.06,0,0,1-9.06,9.06H25a9.05,9.05,0,0,1-9.06-9.06Z"/><g class="cls-34"><path class="cls-35" d="M45.44,79a3.7,3.7,0,1,0,3.7,3.7A3.7,3.7,0,0,0,45.44,79Zm0,6.66a3,3,0,1,1,3-3A3,3,0,0,1,45.44,85.63Z"/><path class="cls-36" d="M44,84.15l2.22-.74.74-2.22-2.22.74Z"/></g><g class="cls-37"><path class="cls-38" d="M68,80.19l-1.11-1.11a.36.36,0,0,0-.26-.11H62.22a.36.36,0,0,0-.26.11l-1.11,1.11a.36.36,0,0,0-.11.26v4.81a.74.74,0,0,0,.74.74H67.4a.74.74,0,0,0,.74-.74V80.45A.36.36,0,0,0,68,80.19Zm-5.66-.48h4.14l.37.37H62Zm-.89,5.55V80.82H67.4v4.44Z"/><path class="cls-39" d="M65.55,82.67H63.33v-.74h-.74v1.48h3.7V81.93h-.74Z"/></g><g class="cls-40"><path class="cls-41" d="M102.44,79a3.69,3.69,0,0,0-2.22,6.64v0h0a3.58,3.58,0,0,0,4.36,0h0v0A3.69,3.69,0,0,0,102.44,79ZM101,85.24a1.1,1.1,0,0,1,1.08-.87h.74a1.1,1.1,0,0,1,1.08.87,2.89,2.89,0,0,1-2.9,0Zm3.53-.48a1.86,1.86,0,0,0-1.71-1.13h-.74a1.86,1.86,0,0,0-1.71,1.13,3,3,0,0,1-.88-2.09,3,3,0,0,1,5.92,0A3,3,0,0,1,104.52,84.76Z"/><path class="cls-42" d="M102.44,80.45a1.48,1.48,0,1,0,1.48,1.48A1.45,1.45,0,0,0,102.44,80.45Zm0,2.22a.74.74,0,1,1,.74-.74A.7.7,0,0,1,102.44,82.67Z"/></g><g class="cls-43"><path class="cls-44" d="M80.48,83.78V79.71h-.74V79h1.11a.38.38,0,0,1,.37.37v4.07h4.6l.74-2.59H82v-.74H87a.47.47,0,0,1,.16,0,.45.45,0,0,1,.13.11.35.35,0,0,1,.07.15.43.43,0,0,1,0,.16l-.93,3.33a.42.42,0,0,1-.13.21.39.39,0,0,1-.23.07H80.85a.35.35,0,0,1-.26-.1A.39.39,0,0,1,80.48,83.78Zm.74,2.59a.72.72,0,0,1-.52-.21.74.74,0,0,1,0-1,.72.72,0,0,1,1,0,.74.74,0,0,1,0,1A.72.72,0,0,1,81.22,86.37Zm4.44,0a.72.72,0,0,1-.52-.21.74.74,0,0,1,0-1,.72.72,0,0,1,1,0,.74.74,0,0,1,0,1A.72.72,0,0,1,85.66,86.37Z"/></g><g class="cls-45"><path class="cls-46" d="M29.4,85.87a.39.39,0,0,1-.11.27.35.35,0,0,1-.26.1H23.85a.35.35,0,0,1-.26-.1.39.39,0,0,1-.11-.27V82.54H22.37l3.82-3.47a.36.36,0,0,1,.5,0l3.82,3.47H29.4Zm-3-1.85a.88.88,0,0,0,.65-.27.9.9,0,0,0,.28-.65.93.93,0,0,0-1.58-.66.91.91,0,0,0-.27.66.89.89,0,0,0,.27.65.88.88,0,0,0,.65.27Z"/></g><path class="cls-19" d="M15.9,132.66A9.06,9.06,0,0,1,25,123.6h78.1a9.06,9.06,0,0,1,9.06,9.06h0a9.07,9.07,0,0,1-9.06,9.07H25a9.06,9.06,0,0,1-9.06-9.07Z"/><rect class="cls-47" x="20.09" y="126.17" width="31.87" height="13.09" rx="6.54"/></g></svg>